<svg width="21" height="20" viewBox="0 0 21 20" fill="none" xmlns="http://www.w3.org/2000/svg">
<path fill-rule="evenodd" clip-rule="evenodd" d="M10.5 20C16.023 20 20.5 15.523 20.5 10C20.5 4.477 16.023 0 10.5 0C4.977 0 0.5 4.477 0.5 10C0.5 15.523 4.977 20 10.5 20ZM11.25 7C11.25 6.80109 11.171 6.61032 11.0303 6.46967C10.8897 6.32902 10.6989 6.25 10.5 6.25C10.3011 6.25 10.1103 6.32902 9.96967 6.46967C9.82902 6.61032 9.75 6.80109 9.75 7V9.25H7.5C7.30109 9.25 7.11032 9.32902 6.96967 9.46967C6.82902 9.61032 6.75 9.80109 6.75 10C6.75 10.1989 6.82902 10.3897 6.96967 10.5303C7.11032 10.671 7.30109 10.75 7.5 10.75H9.75V13C9.75 13.1989 9.82902 13.3897 9.96967 13.5303C10.1103 13.671 10.3011 13.75 10.5 13.75C10.6989 13.75 10.8897 13.671 11.0303 13.5303C11.171 13.3897 11.25 13.1989 11.25 13V10.75H13.5C13.6989 10.75 13.8897 10.671 14.0303 10.5303C14.171 10.3897 14.25 10.1989 14.25 10C14.25 9.80109 14.171 9.61032 14.0303 9.46967C13.8897 9.32902 13.6989 9.25 13.5 9.25H11.25V7Z" fill="#FAFAFA"/>
</svg>
