<svg width="18" height="15" viewBox="0 0 18 15" fill="none" xmlns="http://www.w3.org/2000/svg">
<path d="M12.075 7.97501L10.9875 6.88751C11.125 6.22501 10.9531 5.65939 10.4719 5.19064C9.99063 4.72189 9.4125 4.53751 8.7375 4.63751L7.65 3.55001C7.8625 3.45001 8.08125 3.37501 8.30625 3.32501C8.53125 3.27501 8.7625 3.25001 9 3.25001C9.9375 3.25001 10.7344 3.57814 11.3906 4.23439C12.0469 4.89064 12.375 5.68751 12.375 6.62501C12.375 6.86251 12.35 7.09376 12.3 7.31876C12.25 7.54376 12.175 7.76251 12.075 7.97501ZM14.475 10.3375L13.3875 9.28751C13.8625 8.92501 14.2875 8.52189 14.6625 8.07814C15.0375 7.63439 15.35 7.15001 15.6 6.62501C14.975 5.36251 14.0719 4.35939 12.8906 3.61564C11.7094 2.87189 10.4125 2.50001 9 2.50001C8.6375 2.50001 8.28438 2.52501 7.94063 2.57501C7.59688 2.62501 7.25 2.70001 6.9 2.80001L5.7375 1.63751C6.2625 1.42501 6.79688 1.26564 7.34063 1.15939C7.88438 1.05314 8.4375 1.00001 9 1.00001C10.7125 1.00001 12.2781 1.45001 13.6969 2.35001C15.1156 3.25001 16.2 4.46251 16.95 5.98751C17 6.08751 17.0375 6.19064 17.0625 6.29689C17.0875 6.40314 17.1 6.51251 17.1 6.62501C17.1 6.73751 17.0906 6.84689 17.0719 6.95314C17.0531 7.05939 17.0188 7.16251 16.9688 7.26251C16.6938 7.87501 16.3438 8.44064 15.9188 8.95939C15.4938 9.47814 15.0125 9.93751 14.475 10.3375ZM9 12.25C7.325 12.25 5.79375 11.7969 4.40625 10.8906C3.01875 9.98439 1.925 8.79376 1.125 7.31876C1.0625 7.21876 1.01563 7.10939 0.984375 6.99064C0.953125 6.87189 0.9375 6.75001 0.9375 6.62501C0.9375 6.50001 0.95 6.38126 0.975 6.26876C1 6.15626 1.04375 6.04376 1.10625 5.93126C1.35625 5.43126 1.64688 4.95314 1.97813 4.49689C2.30938 4.04064 2.6875 3.62501 3.1125 3.25001L1.55625 1.67501C1.41875 1.52501 1.35313 1.34689 1.35938 1.14064C1.36563 0.934387 1.4375 0.762512 1.575 0.625012C1.7125 0.487512 1.8875 0.418762 2.1 0.418762C2.3125 0.418762 2.4875 0.487512 2.625 0.625012L15.375 13.375C15.5125 13.5125 15.5844 13.6844 15.5906 13.8906C15.5969 14.0969 15.525 14.275 15.375 14.425C15.2375 14.5625 15.0625 14.6313 14.85 14.6313C14.6375 14.6313 14.4625 14.5625 14.325 14.425L11.7 11.8375C11.2625 11.975 10.8188 12.0781 10.3688 12.1469C9.91875 12.2156 9.4625 12.25 9 12.25ZM4.1625 4.30001C3.8 4.62501 3.46875 4.98126 3.16875 5.36876C2.86875 5.75626 2.6125 6.17501 2.4 6.62501C3.025 7.88751 3.92813 8.89064 5.10938 9.63439C6.29063 10.3781 7.5875 10.75 9 10.75C9.25 10.75 9.49375 10.7344 9.73125 10.7031C9.96875 10.6719 10.2125 10.6375 10.4625 10.6L9.7875 9.88751C9.65 9.92501 9.51875 9.95314 9.39375 9.97189C9.26875 9.99064 9.1375 10 9 10C8.0625 10 7.26563 9.67189 6.60938 9.01564C5.95313 8.35939 5.625 7.56251 5.625 6.62501C5.625 6.48751 5.63438 6.35626 5.65313 6.23126C5.67188 6.10626 5.7 5.97501 5.7375 5.83751L4.1625 4.30001Z" fill="#8A8A8A"/>
</svg>
