<svg width="18" height="12" viewBox="0 0 18 12" fill="none" xmlns="http://www.w3.org/2000/svg">
<path d="M8.99999 9C9.93749 9 10.7344 8.67188 11.3906 8.01562C12.0469 7.35938 12.375 6.5625 12.375 5.625C12.375 4.6875 12.0469 3.89062 11.3906 3.23438C10.7344 2.57812 9.93749 2.25 8.99999 2.25C8.06249 2.25 7.26561 2.57812 6.60936 3.23438C5.95311 3.89062 5.62499 4.6875 5.62499 5.625C5.62499 6.5625 5.95311 7.35938 6.60936 8.01562C7.26561 8.67188 8.06249 9 8.99999 9ZM8.99999 7.65C8.43749 7.65 7.95936 7.45313 7.56561 7.05938C7.17186 6.66563 6.97499 6.1875 6.97499 5.625C6.97499 5.0625 7.17186 4.58437 7.56561 4.19063C7.95936 3.79688 8.43749 3.6 8.99999 3.6C9.56249 3.6 10.0406 3.79688 10.4344 4.19063C10.8281 4.58437 11.025 5.0625 11.025 5.625C11.025 6.1875 10.8281 6.66563 10.4344 7.05938C10.0406 7.45313 9.56249 7.65 8.99999 7.65ZM8.99999 11.25C7.32499 11.25 5.79686 10.8 4.41561 9.9C3.03436 9 1.94374 7.8125 1.14374 6.3375C1.08124 6.225 1.03436 6.10938 1.00311 5.99063C0.971863 5.87188 0.956238 5.75 0.956238 5.625C0.956238 5.5 0.971863 5.37813 1.00311 5.25938C1.03436 5.14062 1.08124 5.025 1.14374 4.9125C1.94374 3.4375 3.03436 2.25 4.41561 1.35C5.79686 0.45 7.32499 0 8.99999 0C10.675 0 12.2031 0.45 13.5844 1.35C14.9656 2.25 16.0562 3.4375 16.8562 4.9125C16.9187 5.025 16.9656 5.14062 16.9969 5.25938C17.0281 5.37813 17.0437 5.5 17.0437 5.625C17.0437 5.75 17.0281 5.87188 16.9969 5.99063C16.9656 6.10938 16.9187 6.225 16.8562 6.3375C16.0562 7.8125 14.9656 9 13.5844 9.9C12.2031 10.8 10.675 11.25 8.99999 11.25ZM8.99999 9.75C10.4125 9.75 11.7094 9.37813 12.8906 8.63437C14.0719 7.89062 14.975 6.8875 15.6 5.625C14.975 4.3625 14.0719 3.35938 12.8906 2.61562C11.7094 1.87187 10.4125 1.5 8.99999 1.5C7.58749 1.5 6.29061 1.87187 5.10936 2.61562C3.92811 3.35938 3.02499 4.3625 2.39999 5.625C3.02499 6.8875 3.92811 7.89062 5.10936 8.63437C6.29061 9.37813 7.58749 9.75 8.99999 9.75Z" fill="#8A8A8A"/>
</svg>
